HIERARCHY
ROOT hip
{
	OFFSET 0.000000 0.000000 0.000000 
	CHANNELS 6 Xposition Yposition Zposition Xrotation Zrotation Yrotation
	JOINT abdomen
	{
		OFFSET 0.000000 3.402643 0.000000 
		CHANNELS 3 Xrotation Zrotation Yrotation
		JOINT chest
		{
			OFFSET 0.000000 8.438565 -0.680529 
			CHANNELS 3 Xrotation Zrotation Yrotation
			JOINT neck
			{
				OFFSET 0.000000 10.207942 -0.272212 
				CHANNELS 3 Xrotation Zrotation Yrotation
				JOINT head
				{
					OFFSET 0.000000 3.130431 0.000000 
					CHANNELS 3 Xrotation Zrotation Yrotation
					End Site
					{
						OFFSET 0.000000 3.130435 0.000000 
					}
				}
			}
			JOINT lCollar
			{
				OFFSET 3.470700 6.669187 -0.816635 
				CHANNELS 3 Yrotation Zrotation Xrotation
				JOINT lShldr
				{
					OFFSET 3.198488 0.000000 0.000000 
					CHANNELS 3 Zrotation Yrotation Xrotation
					JOINT lForeArm
					{
						OFFSET 10.139888 0.000000 0.000000 
						CHANNELS 3 Yrotation Zrotation Xrotation
						JOINT lHand
						{
							OFFSET 8.370511 0.000000 0.000000 
							CHANNELS 3 Zrotation Yrotation Xrotation
							End Site
							{
								OFFSET 4.083176 0.000000 0.000000 
							}
						}
					}
				}
			}
			JOINT rCollar
			{
				OFFSET -3.470700 6.669187 -0.816635 
				CHANNELS 3 Yrotation Zrotation Xrotation
				JOINT rShldr
				{
					OFFSET -3.198488 0.000000 0.000000 
					CHANNELS 3 Zrotation Yrotation Xrotation
					JOINT rForeArm
					{
						OFFSET -10.139888 0.000000 0.000000 
						CHANNELS 3 Yrotation Zrotation Xrotation
						JOINT rHand
						{
							OFFSET -8.370511 0.000000 0.000000 
							CHANNELS 3 Zrotation Yrotation Xrotation
							End Site
							{
								OFFSET -4.083176 0.000000 0.000000 
							}
						}
					}
				}
			}
		}
	}
	JOINT lThigh
	{
		OFFSET 5.308129 -1.633274 1.361059 
		CHANNELS 3 Xrotation Zrotation Yrotation
		JOINT lShin
		{
			OFFSET -2.041588 -20.007561 0.000000 
			CHANNELS 3 Xrotation Zrotation Yrotation
			JOINT lFoot
			{
				OFFSET 0.000000 -19.190928 -1.224953 
				CHANNELS 3 Xrotation Yrotation Zrotation
				End Site
				{
					OFFSET 0.000000 -2.449906 4.627600 
				}
			}
		}
	}
	JOINT rThigh
	{
		OFFSET -5.308129 -1.633274 1.361059 
		CHANNELS 3 Xrotation Zrotation Yrotation
		JOINT rShin
		{
			OFFSET 2.041588 -20.007561 0.000000 
			CHANNELS 3 Xrotation Zrotation Yrotation
			JOINT rFoot
			{
				OFFSET 0.000000 -19.190928 -1.224953 
				CHANNELS 3 Xrotation Yrotation Zrotation
				End Site
				{
					OFFSET 0.000000 -2.449906 4.627600 
				}
			}
		}
	}
}
MOTION
Frames: 11
Frame Time: 0.016667
-1.484886 45.073040 -0.687475 6.633560 -9.458900 3.503530 -18.510900 1.800350 -2.815180 16.737600 4.238650 -1.347090 6.558917 11.340583 -30.933237 11.046400 11.551200 -12.392600 2.000000 -2.000000 0.000000 -82.030296 -6.535740 170.718002 18.945499 -0.344158 0.044448 0.044797 -0.007245 -139.509995 -2.000000 2.000000 0.000000 -92.616997 175.774994 -2.801710 -37.861698 0.322786 0.083914 -0.081176 0.071893 -163.542999 -18.574854 6.444510 7.614351 28.943293 2.614413 2.249594 -21.237005 21.658506 8.697688 -18.692060 9.193111 -7.741469 28.003323 -1.999048 -2.463855 -13.743659 -14.766831 -5.089521 
-1.652248 44.989777 -0.919400 5.940310 -9.451850 1.148840 -18.474701 2.003300 -2.829560 16.611099 4.072390 -1.335310 6.723015 11.092733 -30.975567 11.123700 11.461800 -12.407200 2.000000 -2.000000 0.000000 -81.403801 -7.198630 167.046997 18.955299 -0.344150 0.044471 0.044704 -0.004786 -138.630997 -2.000000 2.000000 0.000000 -92.803200 176.089005 -6.240690 -33.711300 0.328575 0.075882 -0.078832 0.067013 -161.608994 -17.957855 7.096963 8.386520 29.872915 2.655007 2.292895 -21.392710 23.032972 9.243419 -16.453617 8.616895 -10.715512 29.645224 -2.074610 -2.523679 -14.318630 -15.760916 -5.451414 
-1.854604 44.961624 -1.108139 5.622830 -8.786310 -0.813092 -18.646299 1.831250 -2.955920 16.593300 3.692350 -1.387920 6.589189 11.297360 -30.722912 10.955600 11.514700 -12.348400 2.000000 -2.000000 0.000000 -80.533699 -7.329610 165.309006 19.834200 -0.343454 0.046449 0.044791 -0.007108 -139.460999 -2.000000 2.000000 0.000000 87.341202 3.767780 168.378006 -28.701500 0.334767 0.065660 -0.074967 0.057871 -158.063995 -17.317768 6.856243 9.075008 29.811678 2.675640 2.279675 -21.653280 24.405714 9.870926 -14.581004 7.208824 -13.059571 30.931124 -2.180718 -2.552510 -16.507494 -17.365686 -6.547954 
-2.101354 44.949165 -1.293901 5.422900 -7.914090 -2.663860 -19.157600 2.177600 -3.174290 16.159800 4.235590 -1.467780 6.746255 11.478320 -30.770845 11.132300 11.771900 -12.340100 2.000000 -2.000000 0.000000 -80.524399 -6.614280 166.362000 21.797100 -0.341790 0.050826 0.045230 -0.013821 -141.863007 -2.000000 2.000000 0.000000 86.302299 3.205760 162.244003 -24.336201 0.339416 0.056342 -0.072034 0.059393 -154.938995 -16.643309 6.400979 9.729266 29.299292 2.685401 2.241736 -24.305246 23.986948 11.096707 -12.789400 5.471225 -15.842137 31.491537 -2.280082 -2.547446 -19.812559 -19.250492 -8.316425 
-2.486640 44.956871 -1.449063 5.208170 -7.284580 -4.686460 -19.176901 2.257120 -3.296060 16.571100 4.237810 -1.496080 6.640470 11.376716 -30.647871 11.129000 11.655600 -12.276100 2.000000 -2.000000 0.000000 -79.704399 -6.788860 166.880005 23.623301 -0.340108 0.054846 0.045874 -0.019912 -144.050995 -2.000000 2.000000 0.000000 85.885696 3.886380 154.783997 -20.000200 0.343319 0.046763 -0.059960 0.041870 -152.048996 -15.887839 6.377365 10.347268 28.853918 2.712808 2.206496 -26.796690 23.761398 12.273156 -11.124808 4.405276 -17.894701 31.435467 -2.353632 -2.509427 -24.802855 -22.001381 -11.464884 
-3.006755 44.975250 -1.678076 5.408450 -6.728000 -7.745070 -19.430000 2.487350 -2.988670 16.737000 4.345830 -1.295630 6.546608 11.438417 -30.562649 11.078400 11.627900 -12.240700 2.000000 -2.000000 0.000000 -78.835602 -6.406020 167.729004 26.103800 -0.337619 0.060215 0.046746 -0.025947 -146.227997 -2.000000 2.000000 0.000000 85.730499 3.853290 147.233994 -16.885000 0.345670 0.039712 -0.056407 0.025299 -145.994003 -15.504839 6.890187 11.760606 28.444283 2.773382 2.168643 -28.099874 24.106844 13.174233 -10.320400 3.951949 -18.739611 30.822041 -2.398805 -2.445408 -30.066936 -24.933916 -15.423472 
-3.630277 44.953018 -2.080831 5.703730 -5.859720 -12.030500 -19.781900 2.726440 -2.546560 16.402201 4.675240 -1.061540 6.792313 11.330881 -30.160261 11.157000 11.587000 -12.014800 2.000000 -2.000000 0.000000 -78.092903 -5.694480 167.151001 28.427999 -0.335079 0.065144 0.047461 -0.029986 -147.692993 -2.000000 2.000000 0.000000 85.472397 3.732420 144.147995 -15.410300 0.346648 0.036332 -0.055353 0.017468 -143.171997 -15.197157 6.928034 11.843837 28.174767 2.803854 2.131424 -32.648746 24.359148 15.884763 -10.349657 3.764212 -17.212765 30.124767 -2.407552 -2.421470 -34.478870 -26.259970 -18.650522 
-4.288321 44.893520 -2.367922 6.154620 -4.815960 -15.060300 -20.012100 2.472800 -2.500460 16.746799 4.355630 -1.031860 7.129338 11.210095 -29.839714 11.214400 11.498200 -11.838000 2.000000 -2.000000 0.000000 -77.008598 -4.894310 166.886002 30.781601 -0.332305 0.070026 0.048473 -0.034887 -149.479996 -2.000000 2.000000 0.000000 85.912804 2.803190 144.917999 -16.367399 0.346023 0.038528 -0.055012 0.014011 -141.932007 -15.134934 6.728527 11.564676 27.709990 2.822650 2.093703 -36.260235 24.308243 18.157799 -10.586734 3.171237 -17.125982 29.375107 -2.428912 -2.343563 -33.853519 -26.374226 -18.205320 
-5.057534 44.809227 -2.822240 6.353050 -3.950280 -17.910500 -20.295601 2.195160 -2.935350 16.560301 4.432600 -1.275990 7.815516 11.128103 -29.094288 11.335900 11.562800 -11.444800 2.000000 -2.000000 0.000000 -76.362701 -3.648850 164.919998 32.598000 -0.330028 0.073714 0.048926 -0.036860 -150.203003 -2.000000 2.000000 0.000000 86.455902 1.856230 149.632996 -17.627199 0.345145 0.041403 -0.056347 0.024921 -145.856995 -15.113547 6.434309 8.990407 27.546360 2.876225 2.069083 -43.231091 21.617449 20.781191 -10.989402 3.213346 -16.278210 29.159395 -2.427128 -2.336990 -30.783918 -26.418497 -16.275463 
-5.941613 44.714252 -3.309923 6.731020 -3.452660 -20.915501 -20.448601 1.867680 -3.447360 16.551500 4.247450 -1.547030 8.842208 10.309388 -28.320202 11.606700 11.274400 -11.006700 2.000000 -2.000000 0.000000 -75.735802 -2.414550 162.330002 33.672199 -0.328627 0.075860 0.049483 -0.039145 -151.042999 -2.000000 2.000000 0.000000 87.184998 0.945387 155.490005 -19.892799 0.343406 0.046522 -0.058554 0.036274 -149.988007 -15.329597 6.869181 6.886502 27.821806 2.955206 2.044306 -48.906403 19.242893 22.737286 -11.341451 3.752540 -15.576916 28.878252 -2.388952 -2.333334 -27.738367 -25.902933 -14.255132 
-6.909890 44.607342 -3.821219 7.366180 -3.351080 -23.265400 -20.502399 1.829370 -4.218220 16.883400 4.453760 -1.916390 9.444018 9.682602 -27.485479 11.621100 11.080200 -10.619900 2.000000 -2.000000 0.000000 -75.704399 -1.785930 159.604004 33.760101 -0.328511 0.076034 0.049733 -0.040125 -151.404007 -2.000000 2.000000 0.000000 87.745300 0.496870 159.600998 -22.412399 0.341237 0.052128 -0.060198 0.042740 -152.371002 -15.692216 7.729901 4.163733 28.225969 3.034636 2.048026 -54.539246 15.113552 22.547970 -11.460814 4.766626 -15.539881 28.361832 -2.348958 -2.323757 -26.024046 -23.361044 -12.129655 
